<svg xmlns="http://www.w3.org/2000/svg" viewBox="0 0 315 361">
  <path d="M 171.0 348.5 L 137.0 347.5 L 99.0 336.5 L 74.0 322.5 L 47.5 299.0 L 29.5 273.0 L 14.5 233.0 L 11.5 214.0 L 11.5 182.0 L 15.5 159.0 L 31.5 119.0 L 51.5 89.0 L 76.0 63.5 L 106.0 41.5 L 139.0 25.5 L 180.0 14.5 L 231.0 11.5 L 256.0 15.5 L 273.0 22.5 L 287.5 35.0 L 298.5 55.0 L 302.5 73.0 L 301.5 98.0 L 296.5 113.0 L 286.5 131.0 L 263.5 157.0 L 277.5 176.0 L 288.5 205.0 L 290.5 241.0 L 286.5 260.0 L 269.5 294.0 L 241.0 322.5 L 210.0 339.5 L 171.0 348.5 Z M 167.0 137.5 L 165.0 137.5 L 153.5 125.0 L 145.5 108.0 L 142.5 94.0 L 143.5 73.0 L 153.5 49.0 L 169.0 32.5 L 188.0 22.5 L 208.0 19.5 L 244.0 20.5 L 245.5 22.0 L 243.0 24.5 L 226.0 31.5 L 214.0 40.5 L 195.5 63.0 L 189.5 75.0 L 184.5 94.0 L 184.5 113.0 L 190.5 131.0 L 167.0 137.5 Z M 217.0 136.5 L 204.0 133.5 L 196.5 117.0 L 194.5 102.0 L 195.5 89.0 L 202.5 67.0 L 212.5 52.0 L 233.0 34.5 L 252.0 26.5 L 267.0 25.5 L 270.5 31.0 L 273.5 49.0 L 270.5 70.0 L 263.5 82.0 L 232.5 111.0 L 223.5 123.0 L 217.0 136.5 Z M 140.0 153.5 L 129.0 150.5 L 120.0 145.5 L 112.0 139.5 L 100.5 126.0 L 93.5 113.0 L 90.5 102.0 L 90.5 82.0 L 97.5 64.0 L 108.0 52.5 L 132.0 37.5 L 164.0 26.5 L 165.5 28.0 L 152.5 39.0 L 143.5 51.0 L 137.5 63.0 L 133.5 77.0 L 132.5 96.0 L 135.5 112.0 L 144.5 131.0 L 154.5 142.0 L 140.0 153.5 Z M 101.0 192.5 L 80.0 190.5 L 64.0 182.5 L 50.5 169.0 L 40.5 146.0 L 39.5 135.0 L 48.5 114.0 L 65.5 90.0 L 81.0 73.5 L 83.5 75.0 L 77.5 88.0 L 74.5 103.0 L 74.5 116.0 L 78.5 132.0 L 85.5 145.0 L 99.0 158.5 L 126.5 172.0 L 122.5 183.0 L 119.0 186.5 L 101.0 192.5 Z M 190.0 184.5 L 186.0 184.5 L 179.5 175.0 L 178.5 163.0 L 181.5 153.0 L 189.0 144.5 L 193.0 142.5 L 200.0 141.5 L 211.0 143.5 L 212.5 145.0 L 197.5 158.0 L 192.5 170.0 L 192.5 182.0 L 190.0 184.5 Z M 175.0 188.5 L 167.0 185.5 L 159.5 177.0 L 155.5 166.0 L 155.5 159.0 L 162.0 148.5 L 178.0 143.5 L 179.5 146.0 L 174.5 154.0 L 172.5 163.0 L 173.5 176.0 L 178.5 185.0 L 175.0 188.5 Z M 207.0 187.5 L 199.5 183.0 L 198.5 170.0 L 203.5 160.0 L 213.0 151.5 L 228.0 149.5 L 245.0 156.5 L 250.5 161.0 L 249.0 162.5 L 235.0 162.5 L 223.0 167.5 L 213.5 176.0 L 207.0 187.5 Z M 84.0 234.5 L 67.0 233.5 L 51.0 228.5 L 37.0 219.5 L 28.5 210.0 L 24.5 202.0 L 24.5 183.0 L 29.5 159.0 L 32.0 154.5 L 43.5 175.0 L 62.0 191.5 L 86.0 200.5 L 106.0 200.5 L 117.0 197.5 L 118.5 199.0 L 119.5 218.0 L 101.0 230.5 L 84.0 234.5 Z M 164.0 197.5 L 156.0 196.5 L 147.0 191.5 L 138.5 180.0 L 137.5 170.0 L 147.0 158.5 L 149.5 160.0 L 149.5 168.0 L 152.5 177.0 L 167.5 193.0 L 164.0 197.5 Z M 274.0 196.5 L 264.0 189.5 L 253.0 186.5 L 237.0 187.5 L 220.0 196.5 L 213.5 191.0 L 213.5 189.0 L 218.5 180.0 L 226.0 172.5 L 235.0 168.5 L 245.0 167.5 L 256.0 170.5 L 263.5 176.0 L 271.5 186.0 L 275.5 195.0 L 274.0 196.5 Z M 153.0 213.5 L 140.0 211.5 L 130.5 203.0 L 128.5 191.0 L 132.0 181.5 L 138.5 192.0 L 145.0 197.5 L 162.5 204.0 L 162.5 209.0 L 153.0 213.5 Z M 186.0 207.5 L 181.5 201.0 L 181.5 194.0 L 186.0 190.5 L 192.0 189.5 L 193.5 191.0 L 187.5 198.0 L 187.5 206.0 L 186.0 207.5 Z M 217.0 211.5 L 213.0 208.5 L 203.0 206.5 L 201.5 205.0 L 206.5 201.0 L 205.0 199.5 L 200.0 200.5 L 193.0 206.5 L 191.5 205.0 L 194.5 196.0 L 203.0 192.5 L 210.0 196.5 L 217.5 207.0 L 218.5 210.0 L 217.0 211.5 Z M 279.0 237.5 L 273.5 228.0 L 262.0 217.5 L 248.0 212.5 L 229.0 213.5 L 226.5 211.0 L 225.5 203.0 L 233.0 196.5 L 245.0 192.5 L 256.0 193.5 L 267.0 198.5 L 275.5 207.0 L 279.5 215.0 L 280.5 236.0 L 279.0 237.5 Z M 179.0 211.5 L 173.0 211.5 L 168.5 208.0 L 169.5 201.0 L 175.0 194.5 L 177.5 206.0 L 180.5 210.0 L 179.0 211.5 Z M 214.0 231.5 L 209.0 223.5 L 197.5 215.0 L 199.0 212.5 L 207.0 211.5 L 215.5 218.0 L 216.5 228.0 L 214.0 231.5 Z M 151.0 233.5 L 142.0 233.5 L 138.0 231.5 L 132.5 226.0 L 128.5 214.0 L 130.0 212.5 L 142.0 218.5 L 163.0 217.5 L 165.5 221.0 L 162.5 226.0 L 151.0 233.5 Z M 182.0 222.5 L 174.0 220.5 L 171.5 217.0 L 173.0 215.5 L 182.0 216.5 L 186.0 214.5 L 187.5 219.0 L 182.0 222.5 Z M 264.0 278.5 L 259.5 261.0 L 254.5 252.0 L 241.0 239.5 L 222.5 232.0 L 229.0 219.5 L 251.0 219.5 L 261.0 224.5 L 270.5 235.0 L 274.5 247.0 L 274.5 255.0 L 272.5 264.0 L 264.0 278.5 Z M 196.0 248.5 L 194.5 246.0 L 197.5 240.0 L 197.5 233.0 L 193.5 224.0 L 196.0 221.5 L 199.0 221.5 L 206.5 228.0 L 207.5 238.0 L 203.0 244.5 L 196.0 248.5 Z M 163.0 248.5 L 153.0 246.5 L 145.5 241.0 L 157.0 237.5 L 168.0 226.5 L 175.0 227.5 L 176.5 233.0 L 173.5 241.0 L 168.0 246.5 L 163.0 248.5 Z M 179.0 251.5 L 174.0 251.5 L 172.5 249.0 L 178.5 243.0 L 181.5 237.0 L 181.5 229.0 L 188.0 226.5 L 192.5 235.0 L 191.5 242.0 L 187.0 248.5 L 179.0 251.5 Z M 82.0 280.5 L 64.0 278.5 L 46.0 268.5 L 34.5 255.0 L 29.5 244.0 L 26.5 231.0 L 28.0 229.5 L 38.0 240.5 L 54.0 249.5 L 77.0 251.5 L 97.0 246.5 L 124.0 229.5 L 130.5 238.0 L 130.5 242.0 L 119.5 262.0 L 101.0 275.5 L 82.0 280.5 Z M 236.0 310.5 L 233.5 308.0 L 236.5 300.0 L 236.5 290.0 L 232.5 275.0 L 223.5 261.0 L 209.5 249.0 L 218.0 240.5 L 228.0 241.5 L 243.0 249.5 L 251.5 260.0 L 254.5 268.0 L 255.5 284.0 L 253.5 291.0 L 248.5 299.0 L 236.0 310.5 Z M 108.0 314.5 L 86.0 311.5 L 73.0 304.5 L 59.5 293.0 L 61.0 291.5 L 66.0 293.5 L 87.0 293.5 L 109.0 285.5 L 128.5 269.0 L 132.5 264.0 L 138.5 250.0 L 141.0 248.5 L 151.5 256.0 L 151.5 267.0 L 147.5 283.0 L 141.5 294.0 L 133.0 303.5 L 120.0 311.5 L 108.0 314.5 Z M 184.0 332.5 L 182.5 331.0 L 193.5 319.0 L 199.5 303.0 L 199.5 286.0 L 197.5 278.0 L 191.5 264.0 L 188.5 261.0 L 201.0 254.5 L 213.0 263.5 L 221.5 275.0 L 225.5 290.0 L 224.5 302.0 L 220.5 312.0 L 212.0 321.5 L 199.0 328.5 L 184.0 332.5 Z M 148.0 333.5 L 129.0 333.5 L 111.5 328.0 L 114.0 325.5 L 133.0 319.5 L 147.5 308.0 L 155.5 297.0 L 160.5 286.0 L 163.5 274.0 L 163.5 260.0 L 165.0 258.5 L 169.0 260.5 L 177.0 260.5 L 180.5 263.0 L 185.5 276.0 L 186.5 294.0 L 183.5 305.0 L 171.0 322.5 L 158.0 330.5 L 148.0 333.5 Z" fill="#C85A08" fill-rule="evenodd" clip-rule="evenodd"/>
</svg>
